<svg width="20" height="20" xmlns="http://www.w3.org/2000/svg" xmlns:xlink="http://www.w3.org/1999/xlink"><title>dashboard-icon</title><desc>Created using Figma</desc><use xlink:href="#a" fill="#FFF"/><defs><path id="a" fill-rule="evenodd" d="M7.222 0H1.667C.747 0 0 .746 0 1.667v5.555c0 .92.746 1.667 1.667 1.667h5.555c.92 0 1.667-.746 1.667-1.667V1.667C8.889.747 8.143 0 7.222 0zm-6.11 1.667c0-.307.248-.556.555-.556h5.555c.307 0 .556.249.556.556v5.555a.556.556 0 0 1-.556.556H1.667a.556.556 0 0 1-.556-.556V1.667zm11.666-.556a.556.556 0 0 0-.556.556v5.555c0 .307.249.556.556.556h5.555a.556.556 0 0 0 .556-.556V1.667a.556.556 0 0 0-.556-.556h-5.555zM18.333 0h-5.555c-.92 0-1.667.746-1.667 1.667v5.555c0 .92.746 1.667 1.667 1.667h5.555c.92 0 1.667-.746 1.667-1.667V1.667C20 .747 19.254 0 18.333 0zM1.667 12.222a.556.556 0 0 0-.556.556v5.555c0 .307.249.556.556.556h5.555a.556.556 0 0 0 .556-.556v-5.555a.556.556 0 0 0-.556-.556H1.667zm5.555-1.11H1.667c-.92 0-1.667.745-1.667 1.666v5.555C0 19.253.746 20 1.667 20h5.555c.92 0 1.667-.746 1.667-1.667v-5.555c0-.92-.746-1.667-1.667-1.667zm5.556 1.11a.556.556 0 0 0-.556.556v5.555c0 .307.249.556.556.556h5.555a.556.556 0 0 0 .556-.556v-5.555a.556.556 0 0 0-.556-.556h-5.555zm5.555-1.11h-5.555c-.92 0-1.667.745-1.667 1.666v5.555c0 .92.746 1.667 1.667 1.667h5.555c.92 0 1.667-.746 1.667-1.667v-5.555c0-.92-.746-1.667-1.667-1.667z"/></defs></svg>