<svg width="20" height="20" xmlns="http://www.w3.org/2000/svg" xmlns:xlink="http://www.w3.org/1999/xlink"><title>invite-friends-icon</title><desc>Created using Figma</desc><use xlink:href="#a" fill="#FFF"/><defs><path id="a" fill-rule="evenodd" d="M16.627 3.522h2.891c.266 0 .482.225.482.503a.493.493 0 0 1-.482.503h-2.891v3.02a.493.493 0 0 1-.482.502.493.493 0 0 1-.482-.503V4.528h-2.89a.493.493 0 0 1-.483-.503c0-.278.216-.503.482-.503h2.891V.503c0-.278.216-.503.482-.503s.482.225.482.503v3.019zM3.218 7.352c.19.509.637 1.66.976 2.19l.038.062c.275.438.787 1.253 2.395 1.253s2.12-.815 2.394-1.252l.04-.062c.338-.53.785-1.682.975-2.19a.93.93 0 0 0 .528-.848v-.849a.938.938 0 0 0-.407-.779v-.282c0-2.042-1.32-3.262-3.53-3.262s-3.53 1.22-3.53 3.262v.287a.947.947 0 0 0-.407.774v.85c0 .377.218.702.528.847zm.436-1.623a.497.497 0 0 0 .407-.497v-.637c0-1.476.888-2.256 2.566-2.256 1.68 0 2.567.78 2.567 2.256v.637c0 .25.176.46.406.497v.703a.488.488 0 0 0-.376.32c-.164.458-.657 1.75-.965 2.232l-.044.068c-.223.356-.5.799-1.588.799-1.087 0-1.365-.443-1.588-.799l-.044-.068c-.307-.482-.8-1.775-.965-2.232a.487.487 0 0 0-.376-.32v-.703zm-2.222 6.11h10.39c.459 0 .872.189 1.135.519.254.319.35.738.27 1.18-.11.614-.66 1.182-.99 1.522l-.074.077-4.034 4.212a2.084 2.084 0 0 1-1.39.646.482.482 0 0 1-.06.005h-.092a2.083 2.083 0 0 1-1.461-.65l-4.108-4.29c-.33-.34-.88-.908-.99-1.522-.08-.442.016-.861.27-1.18.262-.33.675-.52 1.134-.52zm10.848 1.514c-.055.305-.505.769-.72.991l-4.113 4.293a1.14 1.14 0 0 1-.792.354h-.001l-.019.001h-.014a1.14 1.14 0 0 1-.813-.355l-4.035-4.212-.078-.08v-.001c-.217-.223-.666-.686-.72-.99-.019-.102-.022-.245.064-.353.079-.1.222-.156.393-.156h10.39c.171 0 .315.057.393.156.086.108.083.25.065.352z"/></defs></svg>