<svg width="15" height="20" xmlns="http://www.w3.org/2000/svg" xmlns:xlink="http://www.w3.org/1999/xlink"><title>notification-icon</title><desc>Created using Figma</desc><use xlink:href="#a" fill="#2C3E51"/><defs><path id="a" fill-rule="evenodd" d="M13.978 14.429c0 .143.068.285.17.321 1.37.539 1.023 2.75-.579 2.75h-3.375c-.17 1.393-1.33 2.5-2.694 2.5-1.363 0-2.523-1.107-2.693-2.5H1.432c-1.622 0-1.936-2.216-.58-2.75.102-.036.17-.179.17-.321v-5.5c0-1.857.717-3.607 1.978-4.893.955-.929 2.114-1.572 3.375-1.786-.136-.25-.238-.536-.238-.821C6.137.643 6.75 0 7.5 0s1.364.643 1.364 1.429c0 .321-.068.571-.238.821 3 .571 5.352 3.429 5.352 6.822v5.357zm-5.796-13c0-.393-.307-.715-.682-.715-.375 0-.681.322-.681.715 0 .392.306.714.681.714.375 0 .682-.322.682-.714zM7.5 19.286c-1.022 0-1.84-.786-2.011-1.786h4.023c-.17 1-.989 1.786-2.012 1.786zm-6.068-2.5h12.137c.85 0 1.006-1.13.34-1.393-.374-.143-.613-.536-.613-.964V9.072c0-3.333-2.56-6.215-5.796-6.215-1.5 0-2.932.607-4.023 1.715C2.318 5.714 1.704 7.25 1.704 8.929v5.5c0 .428-.238.821-.613.964a.735.735 0 0 0 .34 1.393z"/></defs></svg>