<svg width="20" height="20" xmlns="http://www.w3.org/2000/svg" xmlns:xlink="http://www.w3.org/1999/xlink"><title>social-feed-icon</title><desc>Created using Figma</desc><use xlink:href="#a" fill="#FFF"/><defs><path id="a" fill-rule="evenodd" d="M17.078 20H2.922A2.925 2.925 0 0 1 0 17.078V2.922A2.924 2.924 0 0 1 2.922 0h14.156A2.925 2.925 0 0 1 20 2.922v14.156A2.925 2.925 0 0 1 17.078 20zm-1.211-6.608a.4.4 0 1 0 .8 0 9.988 9.988 0 0 0-2.95-7.11A9.987 9.987 0 0 0 6.61 3.335a.4.4 0 0 0 0 .8c2.469 0 4.792.964 6.543 2.714a9.193 9.193 0 0 1 2.715 6.544zm-3.22 0a.4.4 0 1 0 .8 0c0-1.824-.712-3.54-2.005-4.834a6.791 6.791 0 0 0-4.834-2.005.4.4 0 0 0 0 .8 6 6 0 0 1 4.268 1.77 5.998 5.998 0 0 1 1.772 4.269zM7.213 15.2A2.415 2.415 0 0 1 4.8 12.788a2.415 2.415 0 0 1 2.412-2.412 2.415 2.415 0 0 1 2.412 2.412A2.415 2.415 0 0 1 7.212 15.2zM5.6 12.788c0-.89.723-1.613 1.612-1.613a1.614 1.614 0 0 1 0 3.225A1.615 1.615 0 0 1 5.6 12.788zM.8 2.922C.8 1.752 1.752.8 2.922.8h14.156c1.17 0 2.122.952 2.122 2.122v14.156c0 1.17-.952 2.122-2.122 2.122H2.922A2.124 2.124 0 0 1 .8 17.078V2.922z"/></defs></svg>